{
  "accessors": [
    {
      "bufferView": 2,
      "componentType": 5126,
      "count": 3199,
      "max": [
        252.1968231201172,
        28.385828018188477,
        130.0186004638672
      ],
      "min": [
        11.940520286560059,
        -7.08661413192749,
        0.0
      ],
      "type": "VEC3"
    },
    {
      "bufferView": 2,
      "byteOffset": 38388,
      "componentType": 5126,
      "count": 3199,
      "max": [
        1.0,
        1.0,
        1.0
      ],
      "min": [
        -1.0,
        -1.0,
        -1.0
      ],
      "type": "VEC3"
    },
    {
      "bufferView": 0,
      "componentType": 5125,
      "count": 14508,
      "type": "SCALAR"
    },
    {
      "bufferView": 2,
      "byteOffset": 76776,
      "componentType": 5126,
      "count": 3672,
      "max": [
        110.70865631103516,
        21.732280731201172,
        125.19684600830078
      ],
      "min": [
        79.52755737304688,
        -9.448819160461426,
        2.8817148208618164
      ],
      "type": "VEC3"
    },
    {
      "bufferView": 2,
      "byteOffset": 120840,
      "componentType": 5126,
      "count": 3672,
      "max": [
        1.0,
        1.0,
        1.0
      ],
      "min": [
        -1.0,
        -1.0,
        -0.9965323209762573
      ],
      "type": "VEC3"
    },
    {
      "bufferView": 1,
      "componentType": 5126,
      "count": 3672,
      "max": [
        0.619725227355957,
        0.9530741572380066
      ],
      "min": [
        0.3832983076572418,
        0.025634288787841797
      ],
      "type": "VEC2"
    },
    {
      "bufferView": 0,
      "byteOffset": 58032,
      "componentType": 5125,
      "count": 19794,
      "type": "SCALAR"
    },
    {
      "bufferView": 2,
      "byteOffset": 164904,
      "componentType": 5126,
      "count": 668,
      "max": [
        146.4567108154297,
        25.590551376342773,
        84.23409271240234
      ],
      "min": [
        118.37010192871094,
        -2.496062994003296,
        1.5548733472824097
      ],
      "type": "VEC3"
    },
    {
      "bufferView": 2,
      "byteOffset": 172920,
      "componentType": 5126,
      "count": 668,
      "max": [
        1.0,
        1.0,
        1.0
      ],
      "min": [
        -1.0,
        -1.0,
        -0.9094362854957581
      ],
      "type": "VEC3"
    },
    {
      "bufferView": 1,
      "byteOffset": 29376,
      "componentType": 5126,
      "count": 668,
      "max": [
        0.6858184933662415,
        0.9122425317764282
      ],
      "min": [
        0.31644299626350403,
        0.08850067853927612
      ],
      "type": "VEC2"
    },
    {
      "bufferView": 0,
      "byteOffset": 137208,
      "componentType": 5125,
      "count": 1812,
      "type": "SCALAR"
    },
    {
      "bufferView": 2,
      "byteOffset": 180936,
      "componentType": 5126,
      "count": 13303,
      "max": [
        290.234375,
        29.91338348388672,
        141.92529296875
      ],
      "min": [
        0.0,
        -9.448819160461426,
        0.0
      ],
      "type": "VEC3"
    },
    {
      "bufferView": 2,
      "byteOffset": 340572,
      "componentType": 5126,
      "count": 13303,
      "max": [
        1.0,
        1.0,
        1.0
      ],
      "min": [
        -1.0,
        -1.0,
        -1.0
      ],
      "type": "VEC3"
    },
    {
      "bufferView": 0,
      "byteOffset": 144456,
      "componentType": 5125,
      "count": 70041,
      "type": "SCALAR"
    },
    {
      "bufferView": 2,
      "byteOffset": 500208,
      "componentType": 5126,
      "count": 469,
      "max": [
        71.84252166748047,
        22.047239303588867,
        81.27869415283203
      ],
      "min": [
        48.03150177001953,
        -1.7637799978256226,
        0.0
      ],
      "type": "VEC3"
    },
    {
      "bufferView": 2,
      "byteOffset": 505836,
      "componentType": 5126,
      "count": 469,
      "max": [
        1.0,
        1.0,
        0.9992787837982178
      ],
      "min": [
        -1.0,
        -1.0,
        -1.0
      ],
      "type": "VEC3"
    },
    {
      "bufferView": 1,
      "byteOffset": 34720,
      "componentType": 5126,
      "count": 469,
      "max": [
        0.7910881042480469,
        0.9170098900794983
      ],
      "min": [
        0.23732639849185944,
        0.06639277935028076
      ],
      "type": "VEC2"
    },
    {
      "bufferView": 0,
      "byteOffset": 424620,
      "componentType": 5125,
      "count": 1275,
      "type": "SCALAR"
    },
    {
      "bufferView": 2,
      "byteOffset": 511464,
      "componentType": 5126,
      "count": 1440,
      "max": [
        216.5748291015625,
        28.385828018188477,
        112.02023315429688
      ],
      "min": [
        188.18899536132813,
        -3.5527141023169746e-15,
        1.7763570511584873e-15
      ],
      "type": "VEC3"
    },
    {
      "bufferView": 2,
      "byteOffset": 528744,
      "componentType": 5126,
      "count": 1440,
      "max": [
        1.0,
        1.0,
        0.9995875358581543
      ],
      "min": [
        -1.0,
        -1.0,
        -0.9999551177024841
      ],
      "type": "VEC3"
    },
    {
      "bufferView": 1,
      "byteOffset": 38472,
      "componentType": 5126,
      "count": 1440,
      "max": [
        0.6134613752365112,
        0.9737088084220886
      ],
      "min": [
        0.38779520988464355,
        0.027225494384765625
      ],
      "type": "VEC2"
    },
    {
      "bufferView": 0,
      "byteOffset": 429720,
      "componentType": 5125,
      "count": 7620,
      "type": "SCALAR"
    },
    {
      "bufferView": 2,
      "byteOffset": 546024,
      "componentType": 5126,
      "count": 1608,
      "max": [
        36.2204704284668,
        28.740156173706055,
        141.92529296875
      ],
      "min": [
        0.0,
        -7.480315208435059,
        0.0
      ],
      "type": "VEC3"
    },
    {
      "bufferView": 2,
      "byteOffset": 565320,
      "componentType": 5126,
      "count": 1608,
      "max": [
        1.0,
        1.0,
        0.9999458193778992
      ],
      "min": [
        -1.0,
        -1.0,
        -0.999965488910675
      ],
      "type": "VEC3"
    },
    {
      "bufferView": 1,
      "byteOffset": 49992,
      "componentType": 5126,
      "count": 1608,
      "max": [
        0.622730016708374,
        0.9652660489082336
      ],
      "min": [
        0.3944784104824066,
        0.03225290775299072
      ],
      "type": "VEC2"
    },
    {
      "bufferView": 0,
      "byteOffset": 460200,
      "componentType": 5125,
      "count": 9060,
      "type": "SCALAR"
    },
    {
      "bufferView": 2,
      "byteOffset": 584616,
      "componentType": 5126,
      "count": 2329,
      "max": [
        182.03062438964844,
        23.576274871826172,
        115.82734680175781
      ],
      "min": [
        150.61329650878906,
        -7.841052055358887,
        1.5862743854522705
      ],
      "type": "VEC3"
    },
    {
      "bufferView": 2,
      "byteOffset": 612564,
      "componentType": 5126,
      "count": 2329,
      "max": [
        1.0,
        1.0,
        1.0
      ],
      "min": [
        -1.0,
        -1.0,
        -1.0
      ],
      "type": "VEC3"
    },
    {
      "bufferView": 1,
      "byteOffset": 62856,
      "componentType": 5126,
      "count": 2329,
      "max": [
        0.626061201095581,
        0.932828426361084
      ],
      "min": [
        0.392349511384964,
        0.08299541473388672
      ],
      "type": "VEC2"
    },
    {
      "bufferView": 0,
      "byteOffset": 496440,
      "componentType": 5125,
      "count": 12522,
      "type": "SCALAR"
    },
    {
      "bufferView": 2,
      "byteOffset": 640512,
      "componentType": 5126,
      "count": 3030,
      "max": [
        290.234375,
        29.91338348388672,
        53.194034576416016
      ],
      "min": [
        260.30950927734375,
        5.283968131341828e-15,
        2.7907021045684814
      ],
      "type": "VEC3"
    },
    {
      "bufferView": 2,
      "byteOffset": 676872,
      "componentType": 5126,
      "count": 3030,
      "max": [
        1.0,
        1.0,
        0.9999768733978271
      ],
      "min": [
        -1.0,
        -1.0,
        -1.0
      ],
      "type": "VEC3"
    },
    {
      "bufferView": 1,
      "byteOffset": 81488,
      "componentType": 5126,
      "count": 3030,
      "max": [
        0.7213944792747498,
        0.7884001731872559
      ],
      "min": [
        0.28123238682746887,
        0.047022223472595215
      ],
      "type": "VEC2"
    },
    {
      "bufferView": 0,
      "byteOffset": 546528,
      "componentType": 5125,
      "count": 16524,
      "type": "SCALAR"
    },
    {
      "bufferView": 2,
      "byteOffset": 713232,
      "componentType": 5126,
      "count": 1104,
      "max": [
        252.75588989257813,
        28.232282638549805,
        79.38581085205078
      ],
      "min": [
        224.5236053466797,
        3.5527141023169746e-15,
        1.6725916862487793
      ],
      "type": "VEC3"
    },
    {
      "bufferView": 2,
      "byteOffset": 726480,
      "componentType": 5126,
      "count": 1104,
      "max": [
        1.0,
        1.0,
        1.0
      ],
      "min": [
        -1.0,
        -1.0,
        -0.7512941360473633
      ],
      "type": "VEC3"
    },
    {
      "bufferView": 1,
      "byteOffset": 105728,
      "componentType": 5126,
      "count": 1104,
      "max": [
        0.6666666865348816,
        0.9533878564834595
      ],
      "min": [
        0.33000001311302185,
        0.026666700839996338
      ],
      "type": "VEC2"
    },
    {
      "bufferView": 0,
      "byteOffset": 612624,
      "componentType": 5125,
      "count": 5790,
      "type": "SCALAR"
    }
  ],
  "asset": {
    "extras": {
      "author": "Pasha (https://sketchfab.com/Pasha.)",
      "license": "CC-BY-4.0 (http://creativecommons.org/licenses/by/4.0/)",
      "source": "https://sketchfab.com/3d-models/sauce-pack-a4783bac73464859a439f46699c418aa",
      "title": "Sauce pack"
    },
    "generator": "Sketchfab-16.73.0",
    "version": "2.0"
  },
  "bufferViews": [
    {
      "buffer": 0,
      "byteLength": 635784,
      "name": "floatBufferViews",
      "target": 34963
    },
    {
      "buffer": 0,
      "byteLength": 114560,
      "byteOffset": 635784,
      "byteStride": 8,
      "name": "floatBufferViews",
      "target": 34962
    },
    {
      "buffer": 0,
      "byteLength": 739728,
      "byteOffset": 750344,
      "byteStride": 12,
      "name": "floatBufferViews",
      "target": 34962
    }
  ],
  "buffers": [
    {
      "byteLength": 1490072,
      "uri": "scene.bin"
    }
  ],
  "extensionsUsed": [
    "KHR_materials_clearcoat"
  ],
  "images": [
    {
      "uri": "textures/850545777552_1_baseColor.jpeg"
    },
    {
      "uri": "textures/seasoning_sauce_large_baseColor.jpeg"
    },
    {
      "uri": "textures/192_750_2x_baseColor.jpeg"
    },
    {
      "uri": "textures/5015f4507e0a568db786ece3793557b_baseColor.jpeg"
    },
    {
      "uri": "textures/oxadcq32vxNcfAH1L4j_o_baseColor.jpeg"
    },
    {
      "uri": "textures/87238_010_Supermarket_baseColor.jpeg"
    },
    {
      "uri": "textures/f221054b527f805f58f1f2e42fc1210_baseColor.jpeg"
    },
    {
      "uri": "textures/82bfecdf5cacbef4ee702da6b5688b5_baseColor.jpeg"
    }
  ],
  "materials": [
    {
      "name": "material",
      "pbrMetallicRoughness": {
        "baseColorFactor": [
          0.643137,
          0.698039,
          0.733333,
          1.0
        ],
        "metallicFactor": 0.0,
        "roughnessFactor": 0.6
      }
    },
    {
      "extensions": {
        "KHR_materials_clearcoat": {
          "clearcoatFactor": 1.0,
          "clearcoatRoughnessFactor": 0.04
        }
      },
      "name": "850545777552_1",
      "pbrMetallicRoughness": {
        "baseColorTexture": {
          "index": 0
        },
        "metallicFactor": 0.0,
        "roughnessFactor": 0.6
      }
    },
    {
      "extensions": {
        "KHR_materials_clearcoat": {
          "clearcoatFactor": 1.0,
          "clearcoatRoughnessFactor": 0.04
        }
      },
      "name": "seasoning_sauce_large",
      "pbrMetallicRoughness": {
        "baseColorTexture": {
          "index": 1
        },
        "metallicFactor": 0.0,
        "roughnessFactor": 0.6
      }
    },
    {
      "name": "material_0",
      "pbrMetallicRoughness": {
        "metallicFactor": 0.0,
        "roughnessFactor": 0.6
      }
    },
    {
      "extensions": {
        "KHR_materials_clearcoat": {
          "clearcoatFactor": 1.0,
          "clearcoatRoughnessFactor": 0.04
        }
      },
      "name": "192_750_2x",
      "pbrMetallicRoughness": {
        "baseColorTexture": {
          "index": 2
        },
        "metallicFactor": 0.0,
        "roughnessFactor": 0.6
      }
    },
    {
      "extensions": {
        "KHR_materials_clearcoat": {
          "clearcoatFactor": 1.0,
          "clearcoatRoughnessFactor": 0.04
        }
      },
      "name": "5015f4507e0a568db786ece3793557b",
      "pbrMetallicRoughness": {
        "baseColorTexture": {
          "index": 3
        },
        "metallicFactor": 0.0,
        "roughnessFactor": 0.6
      }
    },
    {
      "extensions": {
        "KHR_materials_clearcoat": {
          "clearcoatFactor": 1.0,
          "clearcoatRoughnessFactor": 0.04
        }
      },
      "name": "oxadcq32vxNcfAH1L4j_o",
      "pbrMetallicRoughness": {
        "baseColorTexture": {
          "index": 4
        },
        "metallicFactor": 0.0,
        "roughnessFactor": 0.6
      }
    },
    {
      "extensions": {
        "KHR_materials_clearcoat": {
          "clearcoatFactor": 1.0,
          "clearcoatRoughnessFactor": 0.04
        }
      },
      "name": "87238_010_Supermarket",
      "pbrMetallicRoughness": {
        "baseColorTexture": {
          "index": 5
        },
        "metallicFactor": 0.0,
        "roughnessFactor": 0.6
      }
    },
    {
      "extensions": {
        "KHR_materials_clearcoat": {
          "clearcoatFactor": 1.0,
          "clearcoatRoughnessFactor": 0.04
        }
      },
      "name": "f221054b527f805f58f1f2e42fc1210",
      "pbrMetallicRoughness": {
        "baseColorTexture": {
          "index": 6
        },
        "metallicFactor": 0.0,
        "roughnessFactor": 0.6
      }
    },
    {
      "name": "82bfecdf5cacbef4ee702da6b5688b5",
      "pbrMetallicRoughness": {
        "baseColorTexture": {
          "index": 7
        },
        "metallicFactor": 0.0,
        "roughnessFactor": 0.6
      }
    }
  ],
  "meshes": [
    {
      "name": "Material2",
      "primitives": [
        {
          "attributes": {
            "NORMAL": 1,
            "POSITION": 0
          },
          "indices": 2,
          "material": 0,
          "mode": 4
        }
      ]
    },
    {
      "name": "Material3",
      "primitives": [
        {
          "attributes": {
            "NORMAL": 4,
            "POSITION": 3,
            "TEXCOORD_0": 5
          },
          "indices": 6,
          "material": 1,
          "mode": 4
        }
      ]
    },
    {
      "name": "Material2",
      "primitives": [
        {
          "attributes": {
            "NORMAL": 8,
            "POSITION": 7,
            "TEXCOORD_0": 9
          },
          "indices": 10,
          "material": 2,
          "mode": 4
        }
      ]
    },
    {
      "name": "Material2",
      "primitives": [
        {
          "attributes": {
            "NORMAL": 12,
            "POSITION": 11
          },
          "indices": 13,
          "material": 3,
          "mode": 4
        }
      ]
    },
    {
      "name": "Material3",
      "primitives": [
        {
          "attributes": {
            "NORMAL": 15,
            "POSITION": 14,
            "TEXCOORD_0": 16
          },
          "indices": 17,
          "material": 4,
          "mode": 4
        }
      ]
    },
    {
      "name": "Material3",
      "primitives": [
        {
          "attributes": {
            "NORMAL": 19,
            "POSITION": 18,
            "TEXCOORD_0": 20
          },
          "indices": 21,
          "material": 5,
          "mode": 4
        }
      ]
    },
    {
      "name": "Material3",
      "primitives": [
        {
          "attributes": {
            "NORMAL": 23,
            "POSITION": 22,
            "TEXCOORD_0": 24
          },
          "indices": 25,
          "material": 6,
          "mode": 4
        }
      ]
    },
    {
      "name": "Material3",
      "primitives": [
        {
          "attributes": {
            "NORMAL": 27,
            "POSITION": 26,
            "TEXCOORD_0": 28
          },
          "indices": 29,
          "material": 7,
          "mode": 4
        }
      ]
    },
    {
      "name": "Material3",
      "primitives": [
        {
          "attributes": {
            "NORMAL": 31,
            "POSITION": 30,
            "TEXCOORD_0": 32
          },
          "indices": 33,
          "material": 8,
          "mode": 4
        }
      ]
    },
    {
      "name": "Material3",
      "primitives": [
        {
          "attributes": {
            "NORMAL": 35,
            "POSITION": 34,
            "TEXCOORD_0": 36
          },
          "indices": 37,
          "material": 9,
          "mode": 4
        }
      ]
    }
  ],
  "nodes": [
    {
      "children": [
        1
      ],
      "matrix": [
        1.0,
        0.0,
        0.0,
        0.0,
        0.0,
        2.220446049250313e-16,
        -1.0,
        0.0,
        0.0,
        1.0,
        2.220446049250313e-16,
        0.0,
        0.0,
        0.0,
        0.0,
        1.0
      ],
      "name": "Sketchfab_model"
    },
    {
      "children": [
        2
      ],
      "matrix": [
        0.009999999776482582,
        0.0,
        0.0,
        0.0,
        0.0,
        2.2204459996194763e-18,
        0.009999999776482582,
        0.0,
        0.0,
        -0.009999999776482582,
        2.2204459996194763e-18,
        0.0,
        0.0,
        0.0,
        0.0,
        1.0
      ],
      "name": "USDRoot"
    },
    {
      "children": [
        3
      ],
      "name": "scene"
    },
    {
      "children": [
        4
      ],
      "matrix": [
        2.11378812789917,
        0.0,
        0.0,
        0.0,
        0.0,
        2.11378812789917,
        0.0,
        0.0,
        0.0,
        0.0,
        2.11378812789917,
        0.0,
        0.0,
        0.0,
        0.0,
        1.0
      ],
      "name": "Meshes"
    },
    {
      "children": [
        5
      ],
      "matrix": [
        1.0,
        0.0,
        0.0,
        0.0,
        0.0,
        2.220446049250313e-16,
        -1.0,
        0.0,
        0.0,
        1.0,
        2.220446049250313e-16,
        0.0,
        0.0,
        0.0,
        0.0,
        1.0
      ],
      "name": "Sketchfab_model"
    },
    {
      "children": [
        6,
        8,
        10,
        12,
        14,
        16,
        18,
        20,
        22,
        24
      ],
      "name": "Collada_visual_scene_group"
    },
    {
      "children": [
        7
      ],
      "name": "Material2"
    },
    {
      "mesh": 0,
      "name": "Material2"
    },
    {
      "children": [
        9
      ],
      "name": "Material3"
    },
    {
      "mesh": 1,
      "name": "Material3"
    },
    {
      "children": [
        11
      ],
      "name": "Material2_2"
    },
    {
      "mesh": 2,
      "name": "Material2"
    },
    {
      "children": [
        13
      ],
      "name": "Material2_3"
    },
    {
      "mesh": 3,
      "name": "Material2"
    },
    {
      "children": [
        15
      ],
      "name": "Material3_1"
    },
    {
      "mesh": 4,
      "name": "Material3"
    },
    {
      "children": [
        17
      ],
      "name": "Material3_2"
    },
    {
      "mesh": 5,
      "name": "Material3"
    },
    {
      "children": [
        19
      ],
      "name": "Material3_3"
    },
    {
      "mesh": 6,
      "name": "Material3"
    },
    {
      "children": [
        21
      ],
      "name": "Material3_4"
    },
    {
      "mesh": 7,
      "name": "Material3"
    },
    {
      "children": [
        23
      ],
      "name": "Material3_5"
    },
    {
      "mesh": 8,
      "name": "Material3"
    },
    {
      "children": [
        25
      ],
      "name": "Material3_6"
    },
    {
      "mesh": 9,
      "name": "Material3"
    }
  ],
  "samplers": [
    {
      "magFilter": 9729,
      "minFilter": 9987,
      "wrapS": 10497,
      "wrapT": 10497
    }
  ],
  "scene": 0,
  "scenes": [
    {
      "name": "Sketchfab_Scene",
      "nodes": [
        0
      ]
    }
  ],
  "textures": [
    {
      "sampler": 0,
      "source": 0
    },
    {
      "sampler": 0,
      "source": 1
    },
    {
      "sampler": 0,
      "source": 2
    },
    {
      "sampler": 0,
      "source": 3
    },
    {
      "sampler": 0,
      "source": 4
    },
    {
      "sampler": 0,
      "source": 5
    },
    {
      "sampler": 0,
      "source": 6
    },
    {
      "sampler": 0,
      "source": 7
    }
  ]
}
